<?xml version="1.0" encoding="UTF-8" standalone="no"?>
<svg
   xmlns:dc="http://purl.org/dc/elements/1.1/"
   xmlns:cc="http://creativecommons.org/ns#"
   xmlns:rdf="http://www.w3.org/1999/02/22-rdf-syntax-ns#"
   xmlns:svg="http://www.w3.org/2000/svg"
   xmlns="http://www.w3.org/2000/svg"
   xmlns:sodipodi="http://sodipodi.sourceforge.net/DTD/sodipodi-0.dtd"
   xmlns:inkscape="http://www.inkscape.org/namespaces/inkscape"
   version="1.1"
   viewBox="0 0 100 100"
   id="svg3517"
   sodipodi:docname="hide.svg"
   inkscape:version="1.0.2 (e86c8708, 2021-01-15)">
  <metadata
     id="metadata3523">
    <rdf:RDF>
      <cc:Work
         rdf:about="">
        <dc:format>image/svg+xml</dc:format>
        <dc:type
           rdf:resource="http://purl.org/dc/dcmitype/StillImage" />
        <dc:title></dc:title>
      </cc:Work>
    </rdf:RDF>
  </metadata>
  <defs
     id="defs3521">
    <marker
       style="overflow:visible"
       id="marker9250"
       refX="0.0"
       refY="0.0"
       orient="auto"
       inkscape:stockid="TriangleOutS"
       inkscape:isstock="true">
      <path
         transform="scale(0.2)"
         style="fill-rule:evenodd;stroke:#c0c0c0;stroke-width:1pt;stroke-opacity:1;fill:#c0c0c0;fill-opacity:1"
         d="M 5.77,0.0 L -2.88,5.0 L -2.88,-5.0 L 5.77,0.0 z "
         id="path9248" />
    </marker>
    <marker
       style="overflow:visible;"
       id="Arrow2Lend"
       refX="0.0"
       refY="0.0"
       orient="auto"
       inkscape:stockid="Arrow2Lend"
       inkscape:isstock="true">
      <path
         transform="scale(1.1) rotate(180) translate(1,0)"
         d="M 8.7185878,4.0337352 L -2.2072895,0.016013256 L 8.7185884,-4.0017078 C 6.9730900,-1.6296469 6.9831476,1.6157441 8.7185878,4.0337352 z "
         style="fill-rule:evenodd;stroke-width:0.625;stroke-linejoin:round;stroke:#ff8000;stroke-opacity:1;fill:#ff8000;fill-opacity:1"
         id="path6996" />
    </marker>
    <marker
       style="overflow:visible;"
       id="Arrow1Send"
       refX="0.0"
       refY="0.0"
       orient="auto"
       inkscape:stockid="Arrow1Send"
       inkscape:isstock="true">
      <path
         transform="scale(0.2) rotate(180) translate(6,0)"
         style="fill-rule:evenodd;stroke:#ff8000;stroke-width:1pt;stroke-opacity:1;fill:#ff8000;fill-opacity:1"
         d="M 0.0,0.0 L 5.0,-5.0 L -12.5,0.0 L 5.0,5.0 L 0.0,0.0 z "
         id="path6990" />
    </marker>
    <marker
       style="overflow:visible;"
       id="Arrow1Lend"
       refX="0.0"
       refY="0.0"
       orient="auto"
       inkscape:stockid="Arrow1Lend"
       inkscape:isstock="true">
      <path
         transform="scale(0.8) rotate(180) translate(12.5,0)"
         style="fill-rule:evenodd;stroke:#ff8000;stroke-width:1pt;stroke-opacity:1;fill:#ff8000;fill-opacity:1"
         d="M 0.0,0.0 L 5.0,-5.0 L -12.5,0.0 L 5.0,5.0 L 0.0,0.0 z "
         id="path6978" />
    </marker>
    <marker
       style="overflow:visible"
       id="Arrow1Lstart"
       refX="0.0"
       refY="0.0"
       orient="auto"
       inkscape:stockid="Arrow1Lstart"
       inkscape:isstock="true">
      <path
         transform="scale(0.8) translate(12.5,0)"
         style="fill-rule:evenodd;stroke:#ff8000;stroke-width:1pt;stroke-opacity:1;fill:#ff8000;fill-opacity:1"
         d="M 0.0,0.0 L 5.0,-5.0 L -12.5,0.0 L 5.0,5.0 L 0.0,0.0 z "
         id="path6975" />
    </marker>
  </defs>
  <sodipodi:namedview
     pagecolor="#ffffff"
     bordercolor="#666666"
     borderopacity="1"
     objecttolerance="10"
     gridtolerance="10"
     guidetolerance="10"
     inkscape:pageopacity="0"
     inkscape:pageshadow="2"
     inkscape:window-width="1451"
     inkscape:window-height="959"
     id="namedview3519"
     showgrid="false"
     inkscape:zoom="9.7"
     inkscape:cx="40.762898"
     inkscape:cy="51.088435"
     inkscape:window-x="261"
     inkscape:window-y="23"
     inkscape:window-maximized="0"
     inkscape:current-layer="g3515" />
  <g
     stroke-linecap="round"
     stroke-width="5"
     id="g3515">
    <path
       d="m 32.42531,34.319023 c -0.649988,-0.512489 -1.593723,-0.393739 -2.106214,0.256248 -0.512492,0.649987 -0.393742,1.593721 0.256246,2.106213 l 36.999349,28.99949 c 0.649988,0.512491 1.593721,0.393743 2.106212,-0.256246 0.512493,-0.64999 0.393744,-1.59372 -0.256245,-2.106213 l -6.574885,-5.149908 c 2.474959,-2.537459 4.149927,-5.381157 4.993663,-7.399873 0.206245,-0.493738 0.206245,-1.04373 0,-1.537471 C 66.912203,47.000051 64.955988,43.75011 62.031038,41.037656 59.093589,38.300203 55.04991,36.000243 50,36.000243 c -4.262425,0 -7.812363,1.643723 -10.581066,3.799936 z m 9.437332,7.39362 C 44.125101,40.106423 46.843806,39.000191 50,39.000191 c 4.074927,0 7.424868,1.849968 9.993575,4.231177 2.406206,2.237462 4.068677,4.893664 4.918663,6.768631 -0.787486,1.749969 -2.287458,4.174928 -4.431173,6.306142 l -3.362441,-2.637458 c 0.56874,-1.09998 0.887486,-2.343707 0.887486,-3.668684 0,-4.418671 -3.581188,-7.999858 -7.99986,-7.999858 -2.012465,0 -3.856183,0.743734 -5.262409,1.968715 z m 12.818525,10.049826 -5.09366,-3.99368 C 49.850002,47.237547 50,46.631309 50,46.000069 c 0,-0.343744 -0.04376,-0.681237 -0.124998,-0.999981 0.04376,0 0.08125,0 0.124998,0 2.762452,0 4.999911,2.237459 4.999911,4.999911 0,0.618738 -0.112495,1.212479 -0.318744,1.76247 z m 0.587492,8.143607 C 53.674935,60.587315 51.918716,60.999807 50,60.999807 c -4.074929,0 -7.42487,-1.849969 -9.993574,-4.231177 -2.406209,-2.23746 -4.068679,-4.893664 -4.918665,-6.768631 0.518743,-1.149979 1.343727,-2.593705 2.462457,-4.049928 l -2.356208,-1.85622 c -1.424976,1.85622 -2.443707,3.706187 -3.037446,5.137412 -0.206248,0.493741 -0.206248,1.043733 0,1.537471 0.931233,2.231212 2.887448,5.481153 5.812396,8.193607 2.937449,2.737453 6.981127,5.037412 12.03104,5.037412 2.987447,0 5.618652,-0.806235 7.887361,-2.031214 z m -13.26852,-9.906077 c 0,4.418672 3.581189,7.999859 7.999861,7.999859 0.831235,0 1.63122,-0.124997 2.387459,-0.362492 l -3.51244,-2.762453 C 47.406295,54.537419 46.181316,53.549937 45.518828,52.23121 l -3.506189,-2.762452 c -0.0125,0.174998 -0.01877,0.349994 -0.01877,0.531241 z"
       id="path9563"
       style="stroke-width:5;fill:#ffffff" />
  </g>
</svg>
