<?xml version="1.0" encoding="UTF-8" standalone="no"?>
<svg
   xmlns:dc="http://purl.org/dc/elements/1.1/"
   xmlns:cc="http://creativecommons.org/ns#"
   xmlns:rdf="http://www.w3.org/1999/02/22-rdf-syntax-ns#"
   xmlns:svg="http://www.w3.org/2000/svg"
   xmlns="http://www.w3.org/2000/svg"
   xmlns:sodipodi="http://sodipodi.sourceforge.net/DTD/sodipodi-0.dtd"
   xmlns:inkscape="http://www.inkscape.org/namespaces/inkscape"
   version="1.1"
   viewBox="0 0 100 100"
   id="svg3517"
   sodipodi:docname="lock.svg"
   inkscape:version="1.0.2 (e86c8708, 2021-01-15)">
  <metadata
     id="metadata3523">
    <rdf:RDF>
      <cc:Work
         rdf:about="">
        <dc:format>image/svg+xml</dc:format>
        <dc:type
           rdf:resource="http://purl.org/dc/dcmitype/StillImage" />
        <dc:title></dc:title>
      </cc:Work>
    </rdf:RDF>
  </metadata>
  <defs
     id="defs3521">
    <marker
       style="overflow:visible"
       id="marker9250"
       refX="0.0"
       refY="0.0"
       orient="auto"
       inkscape:stockid="TriangleOutS"
       inkscape:isstock="true">
      <path
         transform="scale(0.2)"
         style="fill-rule:evenodd;stroke:#c0c0c0;stroke-width:1pt;stroke-opacity:1;fill:#c0c0c0;fill-opacity:1"
         d="M 5.77,0.0 L -2.88,5.0 L -2.88,-5.0 L 5.77,0.0 z "
         id="path9248" />
    </marker>
    <marker
       style="overflow:visible;"
       id="Arrow2Lend"
       refX="0.0"
       refY="0.0"
       orient="auto"
       inkscape:stockid="Arrow2Lend"
       inkscape:isstock="true">
      <path
         transform="scale(1.1) rotate(180) translate(1,0)"
         d="M 8.7185878,4.0337352 L -2.2072895,0.016013256 L 8.7185884,-4.0017078 C 6.9730900,-1.6296469 6.9831476,1.6157441 8.7185878,4.0337352 z "
         style="fill-rule:evenodd;stroke-width:0.625;stroke-linejoin:round;stroke:#ff8000;stroke-opacity:1;fill:#ff8000;fill-opacity:1"
         id="path6996" />
    </marker>
    <marker
       style="overflow:visible;"
       id="Arrow1Send"
       refX="0.0"
       refY="0.0"
       orient="auto"
       inkscape:stockid="Arrow1Send"
       inkscape:isstock="true">
      <path
         transform="scale(0.2) rotate(180) translate(6,0)"
         style="fill-rule:evenodd;stroke:#ff8000;stroke-width:1pt;stroke-opacity:1;fill:#ff8000;fill-opacity:1"
         d="M 0.0,0.0 L 5.0,-5.0 L -12.5,0.0 L 5.0,5.0 L 0.0,0.0 z "
         id="path6990" />
    </marker>
    <marker
       style="overflow:visible;"
       id="Arrow1Lend"
       refX="0.0"
       refY="0.0"
       orient="auto"
       inkscape:stockid="Arrow1Lend"
       inkscape:isstock="true">
      <path
         transform="scale(0.8) rotate(180) translate(12.5,0)"
         style="fill-rule:evenodd;stroke:#ff8000;stroke-width:1pt;stroke-opacity:1;fill:#ff8000;fill-opacity:1"
         d="M 0.0,0.0 L 5.0,-5.0 L -12.5,0.0 L 5.0,5.0 L 0.0,0.0 z "
         id="path6978" />
    </marker>
    <marker
       style="overflow:visible"
       id="Arrow1Lstart"
       refX="0.0"
       refY="0.0"
       orient="auto"
       inkscape:stockid="Arrow1Lstart"
       inkscape:isstock="true">
      <path
         transform="scale(0.8) translate(12.5,0)"
         style="fill-rule:evenodd;stroke:#ff8000;stroke-width:1pt;stroke-opacity:1;fill:#ff8000;fill-opacity:1"
         d="M 0.0,0.0 L 5.0,-5.0 L -12.5,0.0 L 5.0,5.0 L 0.0,0.0 z "
         id="path6975" />
    </marker>
  </defs>
  <sodipodi:namedview
     pagecolor="#ffffff"
     bordercolor="#666666"
     borderopacity="1"
     objecttolerance="10"
     gridtolerance="10"
     guidetolerance="10"
     inkscape:pageopacity="0"
     inkscape:pageshadow="2"
     inkscape:window-width="1451"
     inkscape:window-height="959"
     id="namedview3519"
     showgrid="false"
     inkscape:zoom="9.7"
     inkscape:cx="40.762898"
     inkscape:cy="51.088435"
     inkscape:window-x="261"
     inkscape:window-y="23"
     inkscape:window-maximized="0"
     inkscape:current-layer="g3515" />
  <g
     stroke-linecap="round"
     stroke-width="5"
     id="g3515">
    <path
       d="m 45.535714,43.75 v 2.678572 h 8.928572 V 43.75 c 0,-2.466517 -1.997768,-4.464286 -4.464286,-4.464286 -2.466518,0 -4.464286,1.997769 -4.464286,4.464286 z m -3.571428,2.678572 V 43.75 c 0,-4.436384 3.59933,-8.035714 8.035714,-8.035714 4.436383,0 8.035714,3.59933 8.035714,8.035714 v 2.678572 h 0.892857 C 60.898437,46.428572 62.5,48.030134 62.5,50 v 10.714286 c 0,1.969866 -1.601563,3.571428 -3.571429,3.571428 H 41.071428 C 39.101562,64.285714 37.5,62.684152 37.5,60.714286 V 50 c 0,-1.969866 1.601562,-3.571428 3.571428,-3.571428 z"
       id="path9709"
       style="fill:#ffffff;stroke-width:5" />
  </g>
</svg>
