<?xml version="1.0" encoding="UTF-8" standalone="no"?>
<svg
   xmlns:dc="http://purl.org/dc/elements/1.1/"
   xmlns:cc="http://creativecommons.org/ns#"
   xmlns:rdf="http://www.w3.org/1999/02/22-rdf-syntax-ns#"
   xmlns:svg="http://www.w3.org/2000/svg"
   xmlns="http://www.w3.org/2000/svg"
   xmlns:sodipodi="http://sodipodi.sourceforge.net/DTD/sodipodi-0.dtd"
   xmlns:inkscape="http://www.inkscape.org/namespaces/inkscape"
   version="1.1"
   viewBox="0 0 100 100"
   id="svg3517"
   sodipodi:docname="show.svg"
   inkscape:version="1.0.2 (e86c8708, 2021-01-15)">
  <metadata
     id="metadata3523">
    <rdf:RDF>
      <cc:Work
         rdf:about="">
        <dc:format>image/svg+xml</dc:format>
        <dc:type
           rdf:resource="http://purl.org/dc/dcmitype/StillImage" />
        <dc:title></dc:title>
      </cc:Work>
    </rdf:RDF>
  </metadata>
  <defs
     id="defs3521">
    <marker
       style="overflow:visible"
       id="marker9250"
       refX="0.0"
       refY="0.0"
       orient="auto"
       inkscape:stockid="TriangleOutS"
       inkscape:isstock="true">
      <path
         transform="scale(0.2)"
         style="fill-rule:evenodd;stroke:#c0c0c0;stroke-width:1pt;stroke-opacity:1;fill:#c0c0c0;fill-opacity:1"
         d="M 5.77,0.0 L -2.88,5.0 L -2.88,-5.0 L 5.77,0.0 z "
         id="path9248" />
    </marker>
    <marker
       style="overflow:visible;"
       id="Arrow2Lend"
       refX="0.0"
       refY="0.0"
       orient="auto"
       inkscape:stockid="Arrow2Lend"
       inkscape:isstock="true">
      <path
         transform="scale(1.1) rotate(180) translate(1,0)"
         d="M 8.7185878,4.0337352 L -2.2072895,0.016013256 L 8.7185884,-4.0017078 C 6.9730900,-1.6296469 6.9831476,1.6157441 8.7185878,4.0337352 z "
         style="fill-rule:evenodd;stroke-width:0.625;stroke-linejoin:round;stroke:#ff8000;stroke-opacity:1;fill:#ff8000;fill-opacity:1"
         id="path6996" />
    </marker>
    <marker
       style="overflow:visible;"
       id="Arrow1Send"
       refX="0.0"
       refY="0.0"
       orient="auto"
       inkscape:stockid="Arrow1Send"
       inkscape:isstock="true">
      <path
         transform="scale(0.2) rotate(180) translate(6,0)"
         style="fill-rule:evenodd;stroke:#ff8000;stroke-width:1pt;stroke-opacity:1;fill:#ff8000;fill-opacity:1"
         d="M 0.0,0.0 L 5.0,-5.0 L -12.5,0.0 L 5.0,5.0 L 0.0,0.0 z "
         id="path6990" />
    </marker>
    <marker
       style="overflow:visible;"
       id="Arrow1Lend"
       refX="0.0"
       refY="0.0"
       orient="auto"
       inkscape:stockid="Arrow1Lend"
       inkscape:isstock="true">
      <path
         transform="scale(0.8) rotate(180) translate(12.5,0)"
         style="fill-rule:evenodd;stroke:#ff8000;stroke-width:1pt;stroke-opacity:1;fill:#ff8000;fill-opacity:1"
         d="M 0.0,0.0 L 5.0,-5.0 L -12.5,0.0 L 5.0,5.0 L 0.0,0.0 z "
         id="path6978" />
    </marker>
    <marker
       style="overflow:visible"
       id="Arrow1Lstart"
       refX="0.0"
       refY="0.0"
       orient="auto"
       inkscape:stockid="Arrow1Lstart"
       inkscape:isstock="true">
      <path
         transform="scale(0.8) translate(12.5,0)"
         style="fill-rule:evenodd;stroke:#ff8000;stroke-width:1pt;stroke-opacity:1;fill:#ff8000;fill-opacity:1"
         d="M 0.0,0.0 L 5.0,-5.0 L -12.5,0.0 L 5.0,5.0 L 0.0,0.0 z "
         id="path6975" />
    </marker>
  </defs>
  <sodipodi:namedview
     pagecolor="#ffffff"
     bordercolor="#666666"
     borderopacity="1"
     objecttolerance="10"
     gridtolerance="10"
     guidetolerance="10"
     inkscape:pageopacity="0"
     inkscape:pageshadow="2"
     inkscape:window-width="1451"
     inkscape:window-height="959"
     id="namedview3519"
     showgrid="false"
     inkscape:zoom="9.7"
     inkscape:cx="40.762898"
     inkscape:cy="51.088435"
     inkscape:window-x="261"
     inkscape:window-y="23"
     inkscape:window-maximized="0"
     inkscape:current-layer="g3515" />
  <g
     stroke-linecap="round"
     stroke-width="5"
     id="g3515">
    <path
       d="m 49.996965,39.306484 c -3.961463,0 -7.218126,1.798453 -9.715305,4.113358 -2.339209,2.175158 -3.955386,4.757397 -4.781703,6.580159 0.826316,1.822755 2.442493,4.404999 4.775625,6.580158 2.503256,2.314905 5.759919,4.113357 9.721382,4.113357 3.961462,0 7.21812,-1.798452 9.715301,-4.113357 2.339206,-2.175158 3.955385,-4.757402 4.781705,-6.580158 C 63.66765,48.177239 62.051472,45.595 59.718342,43.419843 57.215085,41.104938 53.958427,39.306485 49.996965,39.306484 Z m -11.702111,1.98073 c 2.86173,-2.661225 6.792813,-4.897144 11.702111,-4.897144 4.909293,0 8.840379,2.235919 11.702106,4.897144 2.843504,2.642998 4.745247,5.796372 5.650553,7.965454 0.200502,0.479994 0.200502,1.01467 0,1.494661 -0.905306,2.169087 -2.807048,5.328531 -5.650553,7.965458 -2.861727,2.661225 -6.792813,4.897143 -11.702106,4.897143 -4.909298,0 -8.84038,-2.235918 -11.702111,-4.897143 -2.843506,-2.636927 -4.74525,-5.796372 -5.644478,-7.965458 -0.200502,-0.479991 -0.200502,-1.014667 0,-1.494662 0.899228,-2.169082 2.800971,-5.328528 5.644478,-7.965453 z m 11.702111,13.573473 c 2.685527,0 4.860686,-2.175158 4.860686,-4.860686 0,-2.685534 -2.175159,-4.860692 -4.860686,-4.860692 -0.04253,0 -0.07899,0 -0.12152,0 0.07899,0.309868 0.12152,0.637968 0.12152,0.972138 0,2.144778 -1.743775,3.888554 -3.888553,3.888554 -0.334173,0 -0.66227,-0.04253 -0.972138,-0.121521 0,0.04252 0,0.07899 0,0.121521 0,2.685528 2.175158,4.860686 4.860691,4.860686 z m 0,-12.637792 a 7.7771039,7.7771039 0 1 1 0,15.554207 7.7771039,7.7771039 0 1 1 0,-15.554207 z"
       id="path9496"
       style="fill:#ffffff;stroke-width:5" />
  </g>
</svg>
